<svg xmlns="http://www.w3.org/2000/svg" viewBox="0 0 700 260" role="presentation">
<title>Start above the server in .mcp.json</title>
<style>
.dg-w{fill:var(--surface,#fff);stroke:var(--rule2,#cdcdcd);stroke-width:1.5}
.dg-c{fill:var(--bg2,#f7f7f7)}
.dg-l{stroke:var(--rule2,#cdcdcd);stroke-width:1.5;fill:none}
.dg-b{fill:var(--rule,#e6e6e6)}
.dg-b2{fill:var(--rule2,#cdcdcd)}
.dg-tn{fill:var(--accent,#0065b3);fill-opacity:.14}
.dg-t{fill:var(--ink,#1b1b1b);font-size:13px}
.dg-tb{fill:var(--ink,#1b1b1b);font-size:13px;font-weight:600}
.dg-s{fill:var(--ink3,#6b6b6b);font-size:11px;letter-spacing:.06em}
.dg-n{fill:var(--ink3,#6b6b6b);font-size:13px}
.dg-ic{fill:none;stroke:var(--ink3,#6b6b6b);stroke-width:1.6;stroke-linecap:round;stroke-linejoin:round}
.dg-p{fill:var(--surface,#fff);stroke:var(--rule2,#cdcdcd);stroke-width:1.2}
.dg-btn{fill:var(--accent,#0065b3)}
.dg-btnt{fill:var(--accent-ink,#fff);font-size:13px;font-weight:600}
.dg-btnl{stroke:var(--accent-ink,#fff);stroke-width:1;fill:none}
.dg-m{fill:none;stroke:var(--mark,#bc4c00);stroke-width:3}
.dg-mb{fill:var(--mark,#bc4c00)}
.dg-mt{fill:var(--mark-ink,#fff);font-size:12px;font-weight:600}
.dg-ml{stroke:var(--mark,#bc4c00);stroke-width:1.5;fill:none}
.dg-lab{fill:var(--mark,#bc4c00);font-size:14px;font-weight:600}
.dg-x-req{fill:var(--accent-soft,#eef4fa);stroke:var(--accent,#0065b3)}
.dg-x-card{fill:var(--bg2,#f7f7f7);stroke:var(--ctl,#767676)}
.dg-x-hit{fill:var(--bg2,#f7f7f7);stroke:var(--accent,#0065b3);stroke-width:2}
.dg-x-dim{opacity:.45}
.dg-x-arrow{stroke:var(--accent,#0065b3);stroke-width:2;fill:none}
.dg-x-head{fill:var(--accent,#0065b3)}
.dg-x-faint{stroke:var(--ctl,#767676);stroke-width:1.5;fill:none;stroke-dasharray:4 4}
.dg-x-cap{fill:var(--ink2,#505050);font-size:13px}
</style>
<rect class="dg-w" x="5" y="5" width="690" height="250" rx="8"/><rect class="dg-c" x="6" y="34" width="34" height="220" rx="0"/><g transform="translate(0 0)"><path class="dg-ic" d="M17 48h8l4 4v12H17z"/><circle class="dg-ic" cx="22" cy="83" r="5"/><path class="dg-ic" d="M26 87l5 5"/><circle class="dg-ic" cx="19" cy="108" r="2.5"/><circle class="dg-ic" cx="27" cy="116" r="2.5"/><path class="dg-ic" d="M19 111v10M19 118c0-4 8-2 8-4"/><path class="dg-ic" d="M18 136l10 6-10 6z"/><path class="dg-ic" d="M16 162h6v6h-6zM25 162h6v6h-6zM16 171h6v6h-6zM27 170l4 4-4 4-4-4z"/></g><line class="dg-l" x1="41" y1="34" x2="41" y2="254"/><rect class="dg-w" x="48" y="40" width="400" height="205" rx="6"/><rect class="dg-c" x="49" y="41" width="398" height="26" rx="5"/><rect class="dg-w" x="49" y="41" width="96" height="26" style="stroke:none"/><line x1="49" y1="66" x2="145" y2="66" style="stroke:var(--accent,#0065b3);stroke-width:2"/><text class="dg-t" x="60" y="58">.mcp.json</text><g class="dg-n" style="font-size:11px"><text x="58" y="92">1</text><text x="58" y="114">2</text><text x="58" y="151">3</text><text x="58" y="173">4</text><text x="58" y="195">5</text><text x="58" y="217">6</text></g><rect class="dg-b" x="80" y="85" width="12" height="7" rx="2"/><rect class="dg-b" x="96" y="107" width="110" height="7" rx="2"/><path class="dg-ic" d="M114 121l7 4-7 4z" style="stroke-width:1.2"/><text class="dg-n" x="126" y="129" style="font-size:11px">Start</text><text class="dg-n" x="168" y="129" style="font-size:11px">|  More...</text><text class="dg-t" x="112" y="151" style="font-size:12px">&quot;github&quot;: {</text><rect class="dg-b" x="128" y="166" width="220" height="7" rx="2"/><rect class="dg-b" x="128" y="188" width="150" height="7" rx="2"/><rect class="dg-b" x="112" y="210" width="14" height="7" rx="2"/><rect class="dg-m" x="106" y="115" width="56" height="20" rx="4"/><path class="dg-ml" d="M134 135L134 140L480 140"/><text class="dg-lab" x="486" y="135">Select Start. It then</text><text class="dg-lab" x="486" y="153">says Running</text>
</svg>
