<svg xmlns="http://www.w3.org/2000/svg" viewBox="0 0 700 310" role="presentation">
<title>The tools Copilot ran, in its reply</title>
<style>
.dg-w{fill:var(--surface,#fff);stroke:var(--rule2,#cdcdcd);stroke-width:1.5}
.dg-c{fill:var(--bg2,#f7f7f7)}
.dg-l{stroke:var(--rule2,#cdcdcd);stroke-width:1.5;fill:none}
.dg-b{fill:var(--rule,#e6e6e6)}
.dg-b2{fill:var(--rule2,#cdcdcd)}
.dg-tn{fill:var(--accent,#0065b3);fill-opacity:.14}
.dg-t{fill:var(--ink,#1b1b1b);font-size:13px}
.dg-tb{fill:var(--ink,#1b1b1b);font-size:13px;font-weight:600}
.dg-s{fill:var(--ink3,#6b6b6b);font-size:11px;letter-spacing:.06em}
.dg-n{fill:var(--ink3,#6b6b6b);font-size:13px}
.dg-ic{fill:none;stroke:var(--ink3,#6b6b6b);stroke-width:1.6;stroke-linecap:round;stroke-linejoin:round}
.dg-p{fill:var(--surface,#fff);stroke:var(--rule2,#cdcdcd);stroke-width:1.2}
.dg-btn{fill:var(--accent,#0065b3)}
.dg-btnt{fill:var(--accent-ink,#fff);font-size:13px;font-weight:600}
.dg-btnl{stroke:var(--accent-ink,#fff);stroke-width:1;fill:none}
.dg-m{fill:none;stroke:var(--mark,#bc4c00);stroke-width:3}
.dg-mb{fill:var(--mark,#bc4c00)}
.dg-mt{fill:var(--mark-ink,#fff);font-size:12px;font-weight:600}
.dg-ml{stroke:var(--mark,#bc4c00);stroke-width:1.5;fill:none}
.dg-lab{fill:var(--mark,#bc4c00);font-size:14px;font-weight:600}
.dg-x-req{fill:var(--accent-soft,#eef4fa);stroke:var(--accent,#0065b3)}
.dg-x-card{fill:var(--bg2,#f7f7f7);stroke:var(--ctl,#767676)}
.dg-x-hit{fill:var(--bg2,#f7f7f7);stroke:var(--accent,#0065b3);stroke-width:2}
.dg-x-dim{opacity:.45}
.dg-x-arrow{stroke:var(--accent,#0065b3);stroke-width:2;fill:none}
.dg-x-head{fill:var(--accent,#0065b3)}
.dg-x-faint{stroke:var(--ctl,#767676);stroke-width:1.5;fill:none;stroke-dasharray:4 4}
.dg-x-cap{fill:var(--ink2,#505050);font-size:13px}
</style>
<rect class="dg-w" x="5" y="5" width="450" height="300" rx="8"/><text class="dg-s" x="21" y="34">CHAT</text><path class="dg-ic" d="M377 23v14M370 30h14"/><path class="dg-ic" d="M388 29l3 3 3-3"/><circle class="dg-ic" cx="413" cy="30" r="6" style="stroke-dasharray:2.4 1.6;stroke-width:2.4"/><circle class="dg-ic" cx="413" cy="30" r="2.2"/><path class="dg-ic" d="M433 30h.5M439 30h.5M445 30h.5"/><rect class="dg-tn" x="255" y="50" width="186" height="30" rx="7"/><rect class="dg-b2" x="267" y="62" width="140" height="7" rx="2"/><path class="dg-ic" d="M21 100l3 3 6-7"/><rect class="dg-b2" x="37" y="96" width="170" height="7" rx="2"/><line class="dg-l" x1="27" y1="112" x2="27" y2="176"/><rect class="dg-b2" x="39" y="119" width="10" height="10" rx="2"/><rect class="dg-b" x="58" y="121" width="120" height="7" rx="2"/><rect class="dg-b2" x="39" y="141" width="10" height="10" rx="2"/><text class="dg-t" x="58" y="152" style="font-size:12px">Ran List commits</text><rect class="dg-b2" x="39" y="163" width="10" height="10" rx="2"/><rect class="dg-b" x="58" y="165" width="100" height="7" rx="2"/><rect class="dg-b" x="21" y="198" width="330" height="7" rx="2"/><rect class="dg-b" x="21" y="214" width="280" height="7" rx="2"/><rect class="dg-w" x="17" y="228" width="426" height="66" rx="7"/><rect class="dg-b" x="29" y="241" width="110" height="7" rx="2"/><rect class="dg-ic" x="27" y="270" width="11" height="11" rx="2"/><path class="dg-ic" d="M32 273v5M30.0 275h5"/><rect class="dg-p" x="45" y="264" width="71" height="22" rx="5"/><path class="dg-ic" d="M57 270.5l4.5 4.5-4.5 4.5-4.5-4.5z"/><text class="dg-t" x="68" y="279" style="font-size:12px">Agent</text><rect class="dg-p" x="122" y="264" width="48" height="22" rx="5"/><rect class="dg-b" x="130" y="272" width="30" height="5" rx="2"/><circle class="dg-ic" cx="184" cy="275" r="5" style="stroke-dasharray:2.4 1.6;stroke-width:2.4"/><circle class="dg-ic" cx="184" cy="275" r="2.2"/><path d="M421 281l13-6-13-6v4.5l7 1.5-7 1.5z" style="fill:var(--ink3,#6b6b6b)"/><rect class="dg-m" x="33" y="136" width="150" height="24" rx="4"/><path class="dg-ml" d="M183 148L480 148"/><text class="dg-lab" x="486" y="128">Select the folded line to see</text><text class="dg-lab" x="486" y="146">each tool: Ran List commits</text>
</svg>
